frame:0    pts:0       pts_time:0
lavfi.xpsnr.xpsnr.y=26.016598
lavfi.xpsnr.xpsnr.u=24.582632
lavfi.xpsnr.xpsnr.v=21.117346
frame:1    pts:1       pts_time:1
lavfi.xpsnr.xpsnr.y=14.228536
lavfi.xpsnr.xpsnr.u=11.780097
lavfi.xpsnr.xpsnr.v=6.419084
frame:2    pts:2       pts_time:2
lavfi.xpsnr.xpsnr.y=13.756808
lavfi.xpsnr.xpsnr.u=11.235946
lavfi.xpsnr.xpsnr.v=6.796674
frame:3    pts:3       pts_time:3
lavfi.xpsnr.xpsnr.y=13.852882
lavfi.xpsnr.xpsnr.u=11.275736
lavfi.xpsnr.xpsnr.v=6.597760
frame:4    pts:4       pts_time:4
lavfi.xpsnr.xpsnr.y=14.085605
lavfi.xpsnr.xpsnr.u=10.951605
lavfi.xpsnr.xpsnr.v=6.261392
